<mxfile host="app.diagrams.net" modified="2024-01-11T14:13:48.915Z" agent="Mozilla/5.0 (Windows NT 10.0; Win64; x64) AppleWebKit/537.36 (KHTML, like Gecko) Chrome/118.0.0.0 YaBrowser/23.11.0.0 Safari/537.36" etag="ge1CLpEFbXbadNCP2mEr" version="22.1.18" type="device">
  <diagram name="Страница — 1" id="NvAUpcNb-3t1K-kCdSXP">
    <mxGraphModel dx="2495" dy="1369" grid="1" gridSize="10" guides="1" tooltips="1" connect="1" arrows="1" fold="1" page="1" pageScale="1" pageWidth="3300" pageHeight="4681" math="0" shadow="0">
      <root>
        <mxCell id="0" />
        <mxCell id="1" parent="0" />
        <mxCell id="6YR0k9ObrTOWr4Au3c8o-1" value="Дерево диалога" style="rounded=0;whiteSpace=wrap;html=1;labelBackgroundColor=default;fontFamily=Helvetica;" parent="1" vertex="1">
          <mxGeometry x="110" y="90" width="160" height="40" as="geometry" />
        </mxCell>
        <mxCell id="6YR0k9ObrTOWr4Au3c8o-3" value="Сцена" style="rounded=0;whiteSpace=wrap;html=1;labelBackgroundColor=default;fontFamily=Helvetica;" parent="1" vertex="1">
          <mxGeometry x="280" y="90" width="220" height="40" as="geometry" />
        </mxCell>
        <mxCell id="6YR0k9ObrTOWr4Au3c8o-7" value="+ корень: Сцена" style="rounded=0;whiteSpace=wrap;html=1;align=left;spacingLeft=4;labelBackgroundColor=default;fontFamily=Helvetica;" parent="1" vertex="1">
          <mxGeometry x="110" y="130" width="160" height="30" as="geometry" />
        </mxCell>
        <mxCell id="6YR0k9ObrTOWr4Au3c8o-8" value="+ print_pretty_nodes()&lt;br&gt;+ set_height_tree()&lt;br&gt;+ conv_rec(list&amp;lt;Интент&amp;gt;, Сцена): Сцена&lt;br&gt;+ start_conversation(): boolean&lt;br&gt;+ window_tree(tree: Дерево_диалога)" style="rounded=0;whiteSpace=wrap;html=1;align=left;spacingLeft=4;labelBackgroundColor=default;fontFamily=Helvetica;" parent="1" vertex="1">
          <mxGeometry x="110" y="160" width="160" height="140" as="geometry" />
        </mxCell>
        <mxCell id="6YR0k9ObrTOWr4Au3c8o-9" value="&lt;div style=&quot;&quot;&gt;&lt;span style=&quot;font-size: 13px;&quot;&gt;+ имя: string&lt;/span&gt;&lt;/div&gt;&lt;div style=&quot;&quot;&gt;&lt;span style=&quot;font-size: 13px;&quot;&gt;+ потомки: list&amp;lt;Сцена&amp;gt;&lt;/span&gt;&lt;/div&gt;&lt;span style=&quot;font-size: 13px;&quot;&gt;&lt;div style=&quot;&quot;&gt;&lt;span style=&quot;&quot;&gt;+ ответы: list&amp;lt;Шаблон ответа&amp;gt;&lt;/span&gt;&lt;/div&gt;&lt;div style=&quot;&quot;&gt;&lt;span style=&quot;&quot;&gt;+ вопросы: list&amp;lt;Шаблон вопроса&amp;gt;&lt;/span&gt;&lt;/div&gt;&lt;div style=&quot;&quot;&gt;&lt;span style=&quot;&quot;&gt;+ условия перехода: list&amp;lt;string&amp;gt;&lt;/span&gt;&lt;/div&gt;&lt;div style=&quot;&quot;&gt;&lt;span style=&quot;&quot;&gt;+ высота: int&lt;/span&gt;&lt;/div&gt;&lt;/span&gt;" style="rounded=0;whiteSpace=wrap;html=1;spacingLeft=6;align=left;verticalAlign=top;labelBackgroundColor=default;fontFamily=Helvetica;" parent="1" vertex="1">
          <mxGeometry x="280" y="130" width="220" height="110" as="geometry" />
        </mxCell>
        <mxCell id="6YR0k9ObrTOWr4Au3c8o-10" value="Шаблон интента" style="rounded=0;whiteSpace=wrap;html=1;labelBackgroundColor=default;fontFamily=Helvetica;" parent="1" vertex="1">
          <mxGeometry x="850" y="114" width="160" height="40" as="geometry" />
        </mxCell>
        <mxCell id="6YR0k9ObrTOWr4Au3c8o-12" value="Значение интента" style="rounded=0;whiteSpace=wrap;html=1;labelBackgroundColor=default;fontFamily=Helvetica;" parent="1" vertex="1">
          <mxGeometry x="850" y="240" width="160" height="40" as="geometry" />
        </mxCell>
        <mxCell id="6YR0k9ObrTOWr4Au3c8o-14" value="&lt;font style=&quot;font-size: 13px;&quot;&gt;+ set_answer(Шаблон ответа, Значение интента)&lt;br&gt;+ set_name(string)&lt;br&gt;+ add_child(Сцена)&lt;br&gt;+ add_condition(string)&lt;br&gt;+ add_question(Шаблон вопроса)&lt;br&gt;+ print_scene()&lt;br&gt;+ print_pretty()&lt;br&gt;+ print_pretty_children()&lt;br&gt;+ set_height(int): int&lt;br&gt;+ set_height_all(int)&lt;br&gt;+ print_answer()&lt;br&gt;+ conv_continue(list&amp;lt;string&amp;gt;)&lt;/font&gt;" style="rounded=0;whiteSpace=wrap;html=1;align=left;spacingLeft=4;verticalAlign=top;labelBackgroundColor=default;fontFamily=Helvetica;" parent="1" vertex="1">
          <mxGeometry x="280" y="240" width="220" height="230" as="geometry" />
        </mxCell>
        <mxCell id="6YR0k9ObrTOWr4Au3c8o-18" value="" style="endArrow=diamondThin;endFill=0;endSize=24;html=1;rounded=0;entryX=0.5;entryY=0;entryDx=0;entryDy=0;exitX=0.5;exitY=0;exitDx=0;exitDy=0;labelBackgroundColor=default;fontFamily=Helvetica;" parent="1" source="6YR0k9ObrTOWr4Au3c8o-3" target="6YR0k9ObrTOWr4Au3c8o-1" edge="1">
          <mxGeometry width="160" relative="1" as="geometry">
            <mxPoint x="380" y="49.545440673828125" as="sourcePoint" />
            <mxPoint x="540" y="330" as="targetPoint" />
            <Array as="points">
              <mxPoint x="390" y="50" />
              <mxPoint x="190" y="50" />
            </Array>
          </mxGeometry>
        </mxCell>
        <mxCell id="6YR0k9ObrTOWr4Au3c8o-22" value="&lt;font style=&quot;font-size: 13px;&quot;&gt;Токен&lt;/font&gt;" style="rounded=0;whiteSpace=wrap;html=1;labelBackgroundColor=default;fontFamily=Helvetica;" parent="1" vertex="1">
          <mxGeometry x="200" y="580" width="180" height="60" as="geometry" />
        </mxCell>
        <mxCell id="6YR0k9ObrTOWr4Au3c8o-23" value="&lt;font style=&quot;font-size: 13px;&quot;&gt;+ индекс: list&amp;lt;int&amp;gt;&lt;br style=&quot;&quot;&gt;+ текст: list&amp;lt;string&amp;gt;&lt;br style=&quot;&quot;&gt;+ начальная форма:&amp;nbsp;list&amp;lt;string&amp;gt;&lt;br style=&quot;&quot;&gt;+ часть речи:&amp;nbsp;list&amp;lt;string&amp;gt;&lt;br style=&quot;&quot;&gt;+ связь с другим индексом: list&amp;lt;int&amp;gt;&lt;br style=&quot;&quot;&gt;+ название связи: list&amp;lt;string&amp;gt;&lt;br style=&quot;&quot;&gt;+ тип токена: enum&lt;br style=&quot;&quot;&gt;+ тип узла: enum&lt;/font&gt;&lt;div style=&quot;&quot;&gt;&lt;/div&gt;" style="rounded=0;whiteSpace=wrap;html=1;spacingLeft=4;align=left;verticalAlign=top;labelBackgroundColor=default;fontFamily=Helvetica;" parent="1" vertex="1">
          <mxGeometry x="200" y="640" width="180" height="190" as="geometry" />
        </mxCell>
        <mxCell id="6YR0k9ObrTOWr4Au3c8o-24" value="&lt;font style=&quot;font-size: 13px;&quot;&gt;+ add(spacy.tokens.&lt;br&gt;token.Token)&lt;br&gt;+ sort()&lt;br&gt;+ clear()&lt;br&gt;&lt;/font&gt;&lt;div style=&quot;border-color: var(--border-color); font-size: 13px;&quot;&gt;&lt;font style=&quot;font-size: 13px;&quot;&gt;+ index(): list&amp;lt;int&amp;gt;&lt;/font&gt;&lt;/div&gt;&lt;div style=&quot;border-color: var(--border-color); font-size: 13px;&quot;&gt;&lt;span style=&quot;border-color: var(--border-color);&quot;&gt;&lt;font style=&quot;font-size: 13px;&quot;&gt;+ text(): list&amp;lt;string&amp;gt;&lt;/font&gt;&lt;/span&gt;&lt;/div&gt;&lt;div style=&quot;border-color: var(--border-color); font-size: 13px;&quot;&gt;&lt;span style=&quot;border-color: var(--border-color);&quot;&gt;&lt;font style=&quot;font-size: 13px;&quot;&gt;+ lemma(): list&amp;lt;string&amp;gt;&lt;/font&gt;&lt;/span&gt;&lt;/div&gt;&lt;div style=&quot;border-color: var(--border-color); font-size: 13px;&quot;&gt;&lt;span style=&quot;border-color: var(--border-color);&quot;&gt;&lt;font style=&quot;font-size: 13px;&quot;&gt;+ pos(): list&amp;lt;string&amp;gt;&lt;/font&gt;&lt;/span&gt;&lt;/div&gt;&lt;div style=&quot;border-color: var(--border-color); font-size: 13px;&quot;&gt;&lt;span style=&quot;border-color: var(--border-color);&quot;&gt;&lt;font style=&quot;font-size: 13px;&quot;&gt;+ con_index(): list&amp;lt;int&amp;gt;&lt;/font&gt;&lt;/span&gt;&lt;/div&gt;&lt;div style=&quot;border-color: var(--border-color); font-size: 13px;&quot;&gt;&lt;span style=&quot;border-color: var(--border-color);&quot;&gt;&lt;font style=&quot;font-size: 13px;&quot;&gt;+ con_dep(): list&amp;lt;string&amp;gt;&lt;/font&gt;&lt;/span&gt;&lt;/div&gt;" style="rounded=0;whiteSpace=wrap;html=1;align=left;spacingLeft=4;verticalAlign=top;labelBackgroundColor=default;fontFamily=Helvetica;" parent="1" vertex="1">
          <mxGeometry x="200" y="830" width="180" height="170" as="geometry" />
        </mxCell>
        <mxCell id="6YR0k9ObrTOWr4Au3c8o-26" value="&lt;font style=&quot;font-size: 13px;&quot;&gt;Узел графа&lt;/font&gt;" style="rounded=0;whiteSpace=wrap;html=1;labelBackgroundColor=default;fontFamily=Helvetica;" parent="1" vertex="1">
          <mxGeometry x="432" y="580" width="150" height="60" as="geometry" />
        </mxCell>
        <mxCell id="6YR0k9ObrTOWr4Au3c8o-28" value="&lt;font style=&quot;font-size: 13px;&quot;&gt;+ текст: string&lt;br&gt;+ часть речи: string&lt;br&gt;+ тип: enum&lt;/font&gt;" style="rounded=0;whiteSpace=wrap;html=1;align=left;spacingLeft=4;verticalAlign=top;labelBackgroundColor=default;fontFamily=Helvetica;" parent="1" vertex="1">
          <mxGeometry x="432" y="640" width="150" height="60" as="geometry" />
        </mxCell>
        <mxCell id="N2_ulWaD5j1kNSkRBHds-1" value="&lt;font style=&quot;font-size: 13px;&quot;&gt;Дуга графа&lt;/font&gt;" style="rounded=0;whiteSpace=wrap;html=1;labelBackgroundColor=default;fontFamily=Helvetica;" parent="1" vertex="1">
          <mxGeometry x="952" y="580" width="150" height="60" as="geometry" />
        </mxCell>
        <mxCell id="N2_ulWaD5j1kNSkRBHds-2" value="+ текст: string&lt;br&gt;+ тип: enum" style="rounded=0;whiteSpace=wrap;html=1;align=left;spacingLeft=4;verticalAlign=top;labelBackgroundColor=default;fontFamily=Helvetica;" parent="1" vertex="1">
          <mxGeometry x="952" y="640" width="150" height="40" as="geometry" />
        </mxCell>
        <mxCell id="N2_ulWaD5j1kNSkRBHds-3" value="&lt;font style=&quot;font-size: 13px;&quot;&gt;+ text(): string&lt;br style=&quot;border-color: var(--border-color);&quot;&gt;&lt;span style=&quot;&quot;&gt;+ pos(): string&lt;/span&gt;&lt;br style=&quot;border-color: var(--border-color);&quot;&gt;&lt;span style=&quot;&quot;&gt;+ type(): enum&lt;/span&gt;&lt;br style=&quot;border-color: var(--border-color);&quot;&gt;&lt;span style=&quot;&quot;&gt;+ is_intent(): boolean&lt;/span&gt;&lt;br style=&quot;border-color: var(--border-color);&quot;&gt;&lt;span style=&quot;&quot;&gt;+ is_meaning(): boolean&lt;/span&gt;&lt;/font&gt;" style="rounded=0;whiteSpace=wrap;html=1;align=left;spacingLeft=4;verticalAlign=top;labelBackgroundColor=default;fontFamily=Helvetica;" parent="1" vertex="1">
          <mxGeometry x="432" y="700" width="150" height="90" as="geometry" />
        </mxCell>
        <mxCell id="N2_ulWaD5j1kNSkRBHds-4" value="&lt;div style=&quot;font-size: 13px;&quot;&gt;&lt;span style=&quot;&quot;&gt;&lt;font style=&quot;font-size: 13px;&quot;&gt;+ text(): string&lt;/font&gt;&lt;/span&gt;&lt;/div&gt;&lt;div style=&quot;font-size: 13px;&quot;&gt;&lt;span style=&quot;&quot;&gt;&lt;font style=&quot;font-size: 13px;&quot;&gt;+ type(): enum&lt;/font&gt;&lt;/span&gt;&lt;/div&gt;&lt;div style=&quot;font-size: 13px;&quot;&gt;&lt;span style=&quot;&quot;&gt;&lt;font style=&quot;font-size: 13px;&quot;&gt;+ is_name(): boolean&lt;/font&gt;&lt;/span&gt;&lt;/div&gt;&lt;div style=&quot;font-size: 13px;&quot;&gt;&lt;span style=&quot;&quot;&gt;&lt;font style=&quot;font-size: 13px;&quot;&gt;+ is_syntax(): boolean&lt;/font&gt;&lt;/span&gt;&lt;/div&gt;" style="rounded=0;whiteSpace=wrap;html=1;align=left;spacingLeft=4;verticalAlign=top;labelBackgroundColor=default;fontFamily=Helvetica;" parent="1" vertex="1">
          <mxGeometry x="952" y="680" width="150" height="77" as="geometry" />
        </mxCell>
        <mxCell id="N2_ulWaD5j1kNSkRBHds-5" value="&lt;font style=&quot;font-size: 13px;&quot;&gt;Граф&lt;/font&gt;" style="rounded=0;whiteSpace=wrap;html=1;labelBackgroundColor=default;fontFamily=Helvetica;" parent="1" vertex="1">
          <mxGeometry x="640" y="580" width="250" height="60" as="geometry" />
        </mxCell>
        <mxCell id="N2_ulWaD5j1kNSkRBHds-6" value="&lt;font style=&quot;font-size: 13px;&quot;&gt;+ граф:&amp;nbsp;networkx.DiGraph&lt;br&gt;+ слой: int&lt;br&gt;+ индекс: int&lt;/font&gt;" style="rounded=0;whiteSpace=wrap;html=1;align=left;spacingLeft=4;verticalAlign=top;labelBackgroundColor=default;fontFamily=Helvetica;" parent="1" vertex="1">
          <mxGeometry x="640" y="640" width="250" height="60" as="geometry" />
        </mxCell>
        <mxCell id="N2_ulWaD5j1kNSkRBHds-7" value="&lt;div style=&quot;font-size: 13px;&quot;&gt;&lt;font style=&quot;font-size: 13px;&quot;&gt;+ nodes(): list&amp;lt;Узлы&amp;gt;&lt;/font&gt;&lt;/div&gt;&lt;div style=&quot;border-color: var(--border-color); font-size: 13px;&quot;&gt;&lt;font style=&quot;border-color: var(--border-color); font-size: 13px;&quot;&gt;+ edges(): list&amp;lt;Дуги графа&amp;gt;&lt;/font&gt;&lt;/div&gt;&lt;div style=&quot;border-color: var(--border-color); font-size: 13px;&quot;&gt;&lt;font style=&quot;font-size: 13px;&quot;&gt;+ visible()&lt;/font&gt;&lt;/div&gt;&lt;div style=&quot;border-color: var(--border-color); font-size: 13px;&quot;&gt;&lt;span style=&quot;border-color: var(--border-color);&quot;&gt;&lt;font style=&quot;font-size: 13px;&quot;&gt;+ add_tokens_to_graph(Токен)&lt;/font&gt;&lt;/span&gt;&lt;/div&gt;&lt;div style=&quot;border-color: var(--border-color); font-size: 13px;&quot;&gt;&lt;span style=&quot;border-color: var(--border-color);&quot;&gt;&lt;font style=&quot;font-size: 13px;&quot;&gt;+ list_intent(): list&amp;lt;Узел графа&amp;gt;&lt;/font&gt;&lt;/span&gt;&lt;/div&gt;&lt;div style=&quot;border-color: var(--border-color); font-size: 13px;&quot;&gt;&lt;span style=&quot;border-color: var(--border-color);&quot;&gt;&lt;font style=&quot;font-size: 13px;&quot;&gt;+ list_meaning(): list&amp;lt;Узел графа&amp;gt;&lt;br style=&quot;border-color: var(--border-color);&quot;&gt;+ list_intent_text(): list&amp;lt;string&amp;gt;&lt;/font&gt;&lt;/span&gt;&lt;/div&gt;&lt;div style=&quot;border-color: var(--border-color); font-size: 13px;&quot;&gt;&lt;span style=&quot;border-color: var(--border-color);&quot;&gt;&lt;font style=&quot;font-size: 13px;&quot;&gt;+ list_meaning_text(): list&amp;lt;string&amp;gt;&lt;/font&gt;&lt;/span&gt;&lt;/div&gt;&lt;div style=&quot;border-color: var(--border-color); font-size: 13px;&quot;&gt;&lt;span style=&quot;border-color: var(--border-color);&quot;&gt;&lt;font style=&quot;font-size: 13px;&quot;&gt;+ parsing_node(): dic&lt;/font&gt;&lt;/span&gt;&lt;/div&gt;&lt;div style=&quot;border-color: var(--border-color); font-size: 13px;&quot;&gt;&lt;span style=&quot;border-color: var(--border-color);&quot;&gt;&lt;font style=&quot;font-size: 13px;&quot;&gt;+ parsing_edge(): dic&lt;/font&gt;&lt;/span&gt;&lt;/div&gt;" style="rounded=0;whiteSpace=wrap;html=1;align=left;spacingLeft=4;verticalAlign=top;labelBackgroundColor=default;fontFamily=Helvetica;perimeterSpacing=1;" parent="1" vertex="1">
          <mxGeometry x="640" y="700" width="250" height="170" as="geometry" />
        </mxCell>
        <mxCell id="N2_ulWaD5j1kNSkRBHds-9" value="+ имя: string&lt;br&gt;&lt;div style=&quot;&quot;&gt;&lt;span style=&quot;&quot;&gt;+ значение: string&lt;/span&gt;&lt;/div&gt;" style="rounded=0;whiteSpace=wrap;html=1;align=left;spacingLeft=4;labelBackgroundColor=default;fontFamily=Helvetica;" parent="1" vertex="1">
          <mxGeometry x="850" y="280" width="160" height="50" as="geometry" />
        </mxCell>
        <mxCell id="N2_ulWaD5j1kNSkRBHds-10" value="+ имя: string&lt;br&gt;&lt;div style=&quot;&quot;&gt;&lt;span style=&quot;&quot;&gt;+ наличие значения: boolean&lt;/span&gt;&lt;/div&gt;" style="rounded=0;whiteSpace=wrap;html=1;align=left;spacingLeft=4;labelBackgroundColor=default;fontFamily=Helvetica;" parent="1" vertex="1">
          <mxGeometry x="850" y="154" width="160" height="50" as="geometry" />
        </mxCell>
        <mxCell id="N2_ulWaD5j1kNSkRBHds-14" value="" style="endArrow=none;html=1;rounded=0;exitX=1;exitY=0.5;exitDx=0;exitDy=0;entryX=0;entryY=0.5;entryDx=0;entryDy=0;labelBackgroundColor=default;fontFamily=Helvetica;" parent="1" source="6YR0k9ObrTOWr4Au3c8o-22" target="6YR0k9ObrTOWr4Au3c8o-26" edge="1">
          <mxGeometry width="50" height="50" relative="1" as="geometry">
            <mxPoint x="592" y="760" as="sourcePoint" />
            <mxPoint x="642" y="710" as="targetPoint" />
          </mxGeometry>
        </mxCell>
        <mxCell id="N2_ulWaD5j1kNSkRBHds-17" value="" style="endArrow=diamondThin;endFill=1;endSize=24;html=1;rounded=0;exitX=1;exitY=0.5;exitDx=0;exitDy=0;entryX=0;entryY=0.5;entryDx=0;entryDy=0;labelBackgroundColor=default;fontFamily=Helvetica;" parent="1" source="6YR0k9ObrTOWr4Au3c8o-26" target="N2_ulWaD5j1kNSkRBHds-5" edge="1">
          <mxGeometry width="160" relative="1" as="geometry">
            <mxPoint x="630" y="790" as="sourcePoint" />
            <mxPoint x="790" y="790" as="targetPoint" />
          </mxGeometry>
        </mxCell>
        <mxCell id="N2_ulWaD5j1kNSkRBHds-18" value="" style="endArrow=diamondThin;endFill=1;endSize=24;html=1;rounded=0;exitX=0;exitY=0.5;exitDx=0;exitDy=0;entryX=1;entryY=0.5;entryDx=0;entryDy=0;labelBackgroundColor=default;fontFamily=Helvetica;" parent="1" source="N2_ulWaD5j1kNSkRBHds-1" edge="1">
          <mxGeometry width="160" relative="1" as="geometry">
            <mxPoint x="640" y="790" as="sourcePoint" />
            <mxPoint x="890" y="610" as="targetPoint" />
          </mxGeometry>
        </mxCell>
        <mxCell id="S8IbaDdpwPXXWDLYBK__-1" value="Шаблон ответа" style="rounded=0;whiteSpace=wrap;html=1;" vertex="1" parent="1">
          <mxGeometry x="610" y="90" width="131" height="50" as="geometry" />
        </mxCell>
        <mxCell id="S8IbaDdpwPXXWDLYBK__-2" value="Шаблон вопроса" style="rounded=0;whiteSpace=wrap;html=1;" vertex="1" parent="1">
          <mxGeometry x="610" y="240" width="131" height="50" as="geometry" />
        </mxCell>
        <mxCell id="S8IbaDdpwPXXWDLYBK__-3" value="+ текст: list&amp;lt;string&amp;gt;&lt;br&gt;&lt;div style=&quot;&quot;&gt;&lt;span style=&quot;background-color: initial;&quot;&gt;+ шаблон интентов: list&amp;lt;Шаблон интента&amp;gt;&lt;/span&gt;&lt;/div&gt;+ значения интентов: list&amp;lt;Значения интентов&amp;gt;" style="rounded=0;whiteSpace=wrap;html=1;align=left;spacingLeft=6;" vertex="1" parent="1">
          <mxGeometry x="610" y="140" width="131" height="98" as="geometry" />
        </mxCell>
        <mxCell id="S8IbaDdpwPXXWDLYBK__-5" value="+ текст: list&amp;lt;string&amp;gt;&lt;br&gt;&lt;div style=&quot;&quot;&gt;&lt;span style=&quot;background-color: initial;&quot;&gt;+ шаблон интентов: list&amp;lt;Шаблон интента&amp;gt;&lt;/span&gt;&lt;/div&gt;&lt;div style=&quot;&quot;&gt;&lt;span style=&quot;background-color: initial;&quot;&gt;+ значения интентов: list&amp;lt;Значение интента&amp;gt;&lt;/span&gt;&lt;/div&gt;" style="rounded=0;whiteSpace=wrap;html=1;align=left;spacingLeft=5;" vertex="1" parent="1">
          <mxGeometry x="610" y="290" width="131" height="110" as="geometry" />
        </mxCell>
        <mxCell id="S8IbaDdpwPXXWDLYBK__-21" value="" style="endArrow=diamondThin;endFill=0;endSize=24;html=1;rounded=0;entryX=1;entryY=0.25;entryDx=0;entryDy=0;exitX=0;exitY=0.201;exitDx=0;exitDy=0;exitPerimeter=0;" edge="1" parent="1" source="S8IbaDdpwPXXWDLYBK__-1" target="6YR0k9ObrTOWr4Au3c8o-3">
          <mxGeometry width="160" relative="1" as="geometry">
            <mxPoint x="620" y="100" as="sourcePoint" />
            <mxPoint x="500" y="94" as="targetPoint" />
          </mxGeometry>
        </mxCell>
        <mxCell id="S8IbaDdpwPXXWDLYBK__-22" value="" style="endArrow=diamondThin;endFill=0;endSize=24;html=1;rounded=0;entryX=1;entryY=0.75;entryDx=0;entryDy=0;exitX=0.001;exitY=0.599;exitDx=0;exitDy=0;exitPerimeter=0;" edge="1" parent="1" source="S8IbaDdpwPXXWDLYBK__-2" target="6YR0k9ObrTOWr4Au3c8o-3">
          <mxGeometry width="160" relative="1" as="geometry">
            <mxPoint x="620" y="270" as="sourcePoint" />
            <mxPoint x="640" y="210" as="targetPoint" />
            <Array as="points">
              <mxPoint x="560" y="270" />
              <mxPoint x="560" y="120" />
            </Array>
          </mxGeometry>
        </mxCell>
        <mxCell id="S8IbaDdpwPXXWDLYBK__-23" value="" style="endArrow=diamondThin;endFill=0;endSize=24;html=1;rounded=0;exitX=0;exitY=0.15;exitDx=0;exitDy=0;exitPerimeter=0;entryX=1.003;entryY=0.6;entryDx=0;entryDy=0;entryPerimeter=0;" edge="1" parent="1" source="6YR0k9ObrTOWr4Au3c8o-10" target="S8IbaDdpwPXXWDLYBK__-1">
          <mxGeometry width="160" relative="1" as="geometry">
            <mxPoint x="750" y="180" as="sourcePoint" />
            <mxPoint x="910" y="180" as="targetPoint" />
          </mxGeometry>
        </mxCell>
        <mxCell id="S8IbaDdpwPXXWDLYBK__-25" value="" style="endArrow=diamondThin;endFill=0;endSize=24;html=1;rounded=0;exitX=0;exitY=0.75;exitDx=0;exitDy=0;entryX=1.002;entryY=0.177;entryDx=0;entryDy=0;entryPerimeter=0;" edge="1" parent="1" target="S8IbaDdpwPXXWDLYBK__-2">
          <mxGeometry width="160" relative="1" as="geometry">
            <mxPoint x="849.9999999999998" y="143" as="sourcePoint" />
            <mxPoint x="740" y="249" as="targetPoint" />
            <Array as="points">
              <mxPoint x="770" y="143" />
              <mxPoint x="770" y="249" />
            </Array>
          </mxGeometry>
        </mxCell>
        <mxCell id="S8IbaDdpwPXXWDLYBK__-26" value="" style="endArrow=diamondThin;endFill=0;endSize=24;html=1;rounded=0;entryX=1.004;entryY=0.569;entryDx=0;entryDy=0;entryPerimeter=0;exitX=0.012;exitY=0.698;exitDx=0;exitDy=0;exitPerimeter=0;" edge="1" parent="1" target="S8IbaDdpwPXXWDLYBK__-2">
          <mxGeometry width="160" relative="1" as="geometry">
            <mxPoint x="849.9200000000001" y="267.92" as="sourcePoint" />
            <mxPoint x="740.2" y="268.55000000000007" as="targetPoint" />
          </mxGeometry>
        </mxCell>
        <mxCell id="S8IbaDdpwPXXWDLYBK__-27" value="" style="endArrow=diamondThin;endFill=0;endSize=24;html=1;rounded=0;entryX=1;entryY=0.25;entryDx=0;entryDy=0;" edge="1" parent="1" target="S8IbaDdpwPXXWDLYBK__-1">
          <mxGeometry width="160" relative="1" as="geometry">
            <mxPoint x="1010" y="253" as="sourcePoint" />
            <mxPoint x="742.9999999999998" y="100.55000000000003" as="targetPoint" />
            <Array as="points">
              <mxPoint x="1042" y="253" />
              <mxPoint x="1042" y="101" />
            </Array>
          </mxGeometry>
        </mxCell>
        <mxCell id="S8IbaDdpwPXXWDLYBK__-28" value="1" style="text;html=1;strokeColor=none;fillColor=none;align=center;verticalAlign=middle;whiteSpace=wrap;rounded=0;" vertex="1" parent="1">
          <mxGeometry x="141" y="62" width="60" height="30" as="geometry" />
        </mxCell>
        <mxCell id="S8IbaDdpwPXXWDLYBK__-29" value="*" style="text;html=1;strokeColor=none;fillColor=none;align=center;verticalAlign=middle;whiteSpace=wrap;rounded=0;" vertex="1" parent="1">
          <mxGeometry x="370" y="67" width="60" height="30" as="geometry" />
        </mxCell>
        <mxCell id="S8IbaDdpwPXXWDLYBK__-30" value="1" style="text;html=1;strokeColor=none;fillColor=none;align=center;verticalAlign=middle;whiteSpace=wrap;rounded=0;" vertex="1" parent="1">
          <mxGeometry x="500" y="73" width="60" height="30" as="geometry" />
        </mxCell>
        <mxCell id="S8IbaDdpwPXXWDLYBK__-32" value="1" style="text;html=1;strokeColor=none;fillColor=none;align=center;verticalAlign=middle;whiteSpace=wrap;rounded=0;" vertex="1" parent="1">
          <mxGeometry x="500" y="116" width="60" height="30" as="geometry" />
        </mxCell>
        <mxCell id="S8IbaDdpwPXXWDLYBK__-34" value="1..n" style="text;html=1;strokeColor=none;fillColor=none;align=center;verticalAlign=middle;whiteSpace=wrap;rounded=0;" vertex="1" parent="1">
          <mxGeometry x="564" y="73" width="60" height="30" as="geometry" />
        </mxCell>
        <mxCell id="S8IbaDdpwPXXWDLYBK__-36" value="1..n" style="text;html=1;strokeColor=none;fillColor=none;align=center;verticalAlign=middle;whiteSpace=wrap;rounded=0;" vertex="1" parent="1">
          <mxGeometry x="565" y="245" width="60" height="30" as="geometry" />
        </mxCell>
        <mxCell id="S8IbaDdpwPXXWDLYBK__-37" value="1" style="text;html=1;strokeColor=none;fillColor=none;align=center;verticalAlign=middle;whiteSpace=wrap;rounded=0;" vertex="1" parent="1">
          <mxGeometry x="743" y="76" width="60" height="30" as="geometry" />
        </mxCell>
        <mxCell id="S8IbaDdpwPXXWDLYBK__-38" value="1" style="text;html=1;strokeColor=none;fillColor=none;align=center;verticalAlign=middle;whiteSpace=wrap;rounded=0;" vertex="1" parent="1">
          <mxGeometry x="743" y="98" width="60" height="30" as="geometry" />
        </mxCell>
        <mxCell id="S8IbaDdpwPXXWDLYBK__-39" value="1" style="text;html=1;strokeColor=none;fillColor=none;align=center;verticalAlign=middle;whiteSpace=wrap;rounded=0;" vertex="1" parent="1">
          <mxGeometry x="748" y="220" width="60" height="30" as="geometry" />
        </mxCell>
        <mxCell id="S8IbaDdpwPXXWDLYBK__-40" value="1" style="text;html=1;strokeColor=none;fillColor=none;align=center;verticalAlign=middle;whiteSpace=wrap;rounded=0;" vertex="1" parent="1">
          <mxGeometry x="748" y="245" width="60" height="30" as="geometry" />
        </mxCell>
        <mxCell id="S8IbaDdpwPXXWDLYBK__-43" value="*" style="text;html=1;strokeColor=none;fillColor=none;align=center;verticalAlign=middle;whiteSpace=wrap;rounded=0;" vertex="1" parent="1">
          <mxGeometry x="811" y="100" width="60" height="30" as="geometry" />
        </mxCell>
        <mxCell id="S8IbaDdpwPXXWDLYBK__-45" value="1..n" style="text;html=1;strokeColor=none;fillColor=none;align=center;verticalAlign=middle;whiteSpace=wrap;rounded=0;" vertex="1" parent="1">
          <mxGeometry x="996" y="229" width="60" height="30" as="geometry" />
        </mxCell>
        <mxCell id="S8IbaDdpwPXXWDLYBK__-46" value="1..n" style="text;html=1;strokeColor=none;fillColor=none;align=center;verticalAlign=middle;whiteSpace=wrap;rounded=0;" vertex="1" parent="1">
          <mxGeometry x="803" y="120" width="60" height="30" as="geometry" />
        </mxCell>
        <mxCell id="S8IbaDdpwPXXWDLYBK__-48" value="*" style="text;html=1;strokeColor=none;fillColor=none;align=center;verticalAlign=middle;whiteSpace=wrap;rounded=0;" vertex="1" parent="1">
          <mxGeometry x="811" y="247" width="60" height="30" as="geometry" />
        </mxCell>
        <mxCell id="S8IbaDdpwPXXWDLYBK__-49" value="1" style="text;html=1;strokeColor=none;fillColor=none;align=center;verticalAlign=middle;whiteSpace=wrap;rounded=0;" vertex="1" parent="1">
          <mxGeometry x="890" y="584" width="60" height="30" as="geometry" />
        </mxCell>
        <mxCell id="S8IbaDdpwPXXWDLYBK__-50" value="*" style="text;html=1;strokeColor=none;fillColor=none;align=center;verticalAlign=middle;whiteSpace=wrap;rounded=0;" vertex="1" parent="1">
          <mxGeometry x="932" y="592" width="23" height="15" as="geometry" />
        </mxCell>
        <mxCell id="S8IbaDdpwPXXWDLYBK__-51" value="1" style="text;html=1;strokeColor=none;fillColor=none;align=center;verticalAlign=middle;whiteSpace=wrap;rounded=0;" vertex="1" parent="1">
          <mxGeometry x="580" y="582" width="60" height="30" as="geometry" />
        </mxCell>
        <mxCell id="S8IbaDdpwPXXWDLYBK__-52" value="*" style="text;html=1;strokeColor=none;fillColor=none;align=center;verticalAlign=middle;whiteSpace=wrap;rounded=0;" vertex="1" parent="1">
          <mxGeometry x="561" y="584" width="60" height="30" as="geometry" />
        </mxCell>
        <mxCell id="S8IbaDdpwPXXWDLYBK__-53" value="1" style="text;html=1;strokeColor=none;fillColor=none;align=center;verticalAlign=middle;whiteSpace=wrap;rounded=0;" vertex="1" parent="1">
          <mxGeometry x="390" y="585" width="60" height="30" as="geometry" />
        </mxCell>
        <mxCell id="S8IbaDdpwPXXWDLYBK__-55" value="n" style="text;html=1;strokeColor=none;fillColor=none;align=center;verticalAlign=middle;whiteSpace=wrap;rounded=0;" vertex="1" parent="1">
          <mxGeometry x="368" y="585" width="42" height="30" as="geometry" />
        </mxCell>
        <mxCell id="S8IbaDdpwPXXWDLYBK__-56" value="" style="endArrow=none;html=1;rounded=0;exitX=0.5;exitY=0;exitDx=0;exitDy=0;entryX=0.5;entryY=0;entryDx=0;entryDy=0;" edge="1" parent="1" source="6YR0k9ObrTOWr4Au3c8o-22" target="N2_ulWaD5j1kNSkRBHds-1">
          <mxGeometry width="50" height="50" relative="1" as="geometry">
            <mxPoint x="700" y="710" as="sourcePoint" />
            <mxPoint x="750" y="660" as="targetPoint" />
            <Array as="points">
              <mxPoint x="290" y="540" />
              <mxPoint x="1027" y="540" />
            </Array>
          </mxGeometry>
        </mxCell>
        <mxCell id="S8IbaDdpwPXXWDLYBK__-58" value="n" style="text;html=1;strokeColor=none;fillColor=none;align=center;verticalAlign=middle;whiteSpace=wrap;rounded=0;" vertex="1" parent="1">
          <mxGeometry x="280" y="550" width="50" height="30" as="geometry" />
        </mxCell>
        <mxCell id="S8IbaDdpwPXXWDLYBK__-59" value="1" style="text;html=1;strokeColor=none;fillColor=none;align=center;verticalAlign=middle;whiteSpace=wrap;rounded=0;" vertex="1" parent="1">
          <mxGeometry x="989" y="550" width="50" height="30" as="geometry" />
        </mxCell>
      </root>
    </mxGraphModel>
  </diagram>
</mxfile>
